<?xml version="1.0" encoding="UTF-8"?>
<!DOCTYPE svg PUBLIC "-//W3C//DTD SVG 1.1//EN" "http://www.w3.org/Graphics/SVG/1.1/DTD/svg11.dtd">
<svg xmlns="http://www.w3.org/2000/svg" xmlns:xlink="http://www.w3.org/1999/xlink" version="1.1" width="901px" height="681px" viewBox="-0.5 -0.5 901 681">
  <defs />
  <g>
    <!--rgbd_to_ros-->
    <!--Input arrow-->
    <path d="M 110 100 L 221.76 100" fill="none" stroke="#000000" stroke-width="2" stroke-miterlimit="10" pointer-events="stroke" />
    <path d="M 227.76 100 L 219.76 104 L 221.76 100 L 219.76 96 Z" fill="#000000" stroke="#000000" stroke-width="2" stroke-miterlimit="10" pointer-events="all" />
    <rect x="110" y="70" width="120" height="20" fill="none" stroke="none" pointer-events="all" />
    <g fill="#000000" font-family="Helvetica" text-anchor="middle" font-size="11px">
      <text x="169.5" y="84">rgbd_msgs::RGBD</text>
    </g>
    <rect x="110" y="60" width="120" height="20" fill="none" stroke="none" pointer-events="all" />
    <g fill="#000000" font-family="Helvetica" text-anchor="middle" font-size="11px">
      <text x="169.5" y="74">or</text>
    </g>
    <rect x="110" y="50" width="120" height="20" fill="none" stroke="none" pointer-events="all" />
    <g fill="#000000" font-family="Helvetica" text-anchor="middle" font-size="11px">
      <text x="169.5" y="64">Shared memory</text>
    </g>
    <!--Output arrow-->
    <path d="M 670 100 L 781.76 100" fill="none" stroke="#000000" stroke-width="2" stroke-miterlimit="10" pointer-events="stroke" />
    <path d="M 787.76 100 L 779.76 104 L 781.76 100 L 779.76 96 Z" fill="#000000" stroke="#000000" stroke-width="2" stroke-miterlimit="10" pointer-events="all" />
    <rect x="670" y="50" width="230" height="20" fill="none" stroke="none" pointer-events="all" />
    <g fill="#000000" font-family="Helvetica" text-anchor="middle" font-size="11px">
      <text x="784.5" y="64">sensor_msgs::Image color_image</text>
    </g>
    <rect x="670" y="60" width="230" height="20" fill="none" stroke="none" pointer-events="all" />
    <g fill="#000000" font-family="Helvetica" text-anchor="middle" font-size="11px">
      <text x="784.5" y="74">sensor_msgs::Image depth_image</text>
    </g>
    <rect x="670" y="70" width="230" height="20" fill="none" stroke="none" pointer-events="all" />
    <g fill="#000000" font-family="Helvetica" text-anchor="middle" font-size="11px">
      <text x="784.5" y="84">sensor_msgs::CameraInfo camera_info</text>
    </g>
    <!--Body-->
    <rect x="230" y="0" width="440" height="200" fill="none" stroke="#000000" pointer-events="all" />
    <g fill="#000000" font-family="Helvetica" font-weight="bold" text-anchor="middle" font-size="14px">
      <a xlink:href="rgbd__to__ros_8cpp.html" target="_parent">
        <text x="449.5" y="25.5">rgbd_to_ros</text>
      </a>
    </g>
    <!--Left arrow-->
    <path d="M 230 100 L 281.76 100" fill="none" stroke="#000000" stroke-width="2" stroke-miterlimit="10" pointer-events="stroke" />
    <path d="M 287.76 100 L 279.76 104 L 281.76 100 L 279.76 96 Z" fill="#000000" stroke="#000000" stroke-width="2" stroke-miterlimit="10" pointer-events="all" />
    <!--Client body-->
    <rect x="290" y="50" width="100" height="100" fill="none" stroke="#000000" pointer-events="all" />
    <g fill="#000000" font-family="Helvetica" font-weight="bold" text-anchor="middle" font-size="14px">
      <a xlink:href="classrgbd_1_1Client.html" target="_parent">
        <text x="339.5" y="105.5">Client</text>
      </a>
    </g>
    <!--Middle arrow-->
    <path d="M 390 100 L 501.76 100" fill="none" stroke="#000000" stroke-width="2" stroke-miterlimit="10" pointer-events="stroke" />
    <path d="M 507.76 100 L 499.76 104 L 501.76 100 L 499.76 96 Z" fill="#000000" stroke="#000000" stroke-width="2" stroke-miterlimit="10" pointer-events="all" />
    <g fill="#000000" font-family="Helvetica" text-anchor="middle" font-size="11px">
      <text x="449.5" y="84">rgbd::Image</text>
    </g>
    <!--Server body-->
    <rect x="510" y="50" width="100" height="100" fill="none" stroke="#000000" pointer-events="all" />
    <g fill="#000000" font-family="Helvetica" font-weight="bold" text-anchor="middle" font-size="14px">
      <a xlink:href="classrgbd_1_1ServerROS.html" target="_parent">
        <text x="559.5" y="105.5">ServerROS</text>
      </a>
    </g>
    <!--Right arrow-->
    <path d="M 610 100 L 661.76 100" fill="none" stroke="#000000" stroke-width="2" stroke-miterlimit="10" pointer-events="stroke" />
    <path d="M 667.76 100 L 659.76 104 L 661.76 100 L 659.76 96 Z" fill="#000000" stroke="#000000" stroke-width="2" stroke-miterlimit="10" pointer-events="all" />

    <!--rgbd_to_shm-->
    <!--Input arrow-->
    <path d="M 110 340 L 221.76 340" fill="none" stroke="#000000" stroke-width="2" stroke-miterlimit="10" pointer-events="stroke" />
    <path d="M 227.76 340 L 219.76 344 L 221.76 340 L 219.76 336 Z" fill="#000000" stroke="#000000" stroke-width="2" stroke-miterlimit="10" pointer-events="all" />
    <g fill="#000000" font-family="Helvetica" text-anchor="middle" font-size="11px">
      <text x="170.68" y="324">rgbd_msgs::RGBD</text>
    </g>
    <!--Output arrow-->
    <path d="M 670 340 L 781.76 340" fill="none" stroke="#000000" stroke-width="2" stroke-miterlimit="10" pointer-events="stroke" />
    <path d="M 787.76 340 L 779.76 344 L 781.76 340 L 779.76 336 Z" fill="#000000" stroke="#000000" stroke-width="2" stroke-miterlimit="10" pointer-events="all" />
    <g fill="#000000" font-family="Helvetica" text-anchor="middle" font-size="11px">
      <text x="730.68" y="324">Shared memory</text>
    </g>
    <!--Body-->
    <rect x="230" y="240" width="440" height="200" fill="none" stroke="#000000" pointer-events="all" />
    <g fill="#000000" font-family="Helvetica" font-weight="bold" text-anchor="middle" font-size="14px">
      <a xlink:href="rgbd__to__shm_8cpp.html" target="_parent">
        <text x="449.5" y="265.5">rgbd_to_shm</text>
      </a>
    </g>
    <!--Left arrow-->
    <path d="M 230 340 L 281.76 340" fill="none" stroke="#000000" stroke-width="2" stroke-miterlimit="10" pointer-events="stroke" />
    <path d="M 287.76 340 L 279.76 344 L 281.76 340 L 279.76 336 Z" fill="#000000" stroke="#000000" stroke-width="2" stroke-miterlimit="10" pointer-events="all" />
    <!--Client body-->
    <rect x="290" y="290" width="100" height="100" fill="none" stroke="#000000" pointer-events="all" />
    <g fill="#000000" font-family="Helvetica" font-weight="bold" text-anchor="middle" font-size="14px">
      <a xlink:href="classrgbd_1_1ClientRGBD.html" target="_parent">
        <text x="339.5" y="345.5">ClientRGBD</text>
      </a>
    </g>
    <!--Middle arrow-->
    <path d="M 390 340 L 501.76 340" fill="none" stroke="#000000" stroke-width="2" stroke-miterlimit="10" pointer-events="stroke" />
    <path d="M 507.76 340 L 499.76 344 L 501.76 340 L 499.76 336 Z" fill="#000000" stroke="#000000" stroke-width="2" stroke-miterlimit="10" pointer-events="all" />
    <g fill="#000000" font-family="Helvetica" text-anchor="middle" font-size="11px">
      <text x="449.5" y="324">rgbd::Image</text>
    </g>
    <!--Server body-->
    <rect x="510" y="290" width="100" height="100" fill="none" stroke="#000000" pointer-events="all" />
    <g fill="#000000" font-family="Helvetica" font-weight="bold" text-anchor="middle" font-size="14px">
      <a xlink:href="classrgbd_1_1ServerSHM.html" target="_parent">
        <text x="559.5" y="345.5">ServerSHM</text>
      </a>
    </g>
    <!--Right arrow-->
    <path d="M 610 340 L 661.76 340" fill="none" stroke="#000000" stroke-width="2" stroke-miterlimit="10" pointer-events="stroke" />
    <path d="M 667.76 340 L 659.76 344 L 661.76 340 L 659.76 336 Z" fill="#000000" stroke="#000000" stroke-width="2" stroke-miterlimit="10" pointer-events="all" />

    <!--ros_to_rgbd-->
    <!--Input arrow-->
    <path d="M 110 580 L 221.76 580" fill="none" stroke="#000000" stroke-width="2" stroke-miterlimit="10" pointer-events="stroke" />
    <path d="M 227.76 580 L 219.76 584 L 221.76 580 L 219.76 576 Z" fill="#000000" stroke="#000000" stroke-width="2" stroke-miterlimit="10" pointer-events="all" />
    <rect x="0" y="530" width="230" height="20" fill="none" stroke="none" pointer-events="all" />
    <g fill="#000000" font-family="Helvetica" text-anchor="middle" font-size="11px">
      <text x="114.5" y="544">sensor_msgs::Image color_image</text>
    </g>
    <rect x="0" y="540" width="230" height="20" fill="none" stroke="none" pointer-events="all" />
    <g fill="#000000" font-family="Helvetica" text-anchor="middle" font-size="11px">
      <text x="114.5" y="554">sensor_msgs::Image depth_image</text>
    </g>
    <rect x="0" y="550" width="230" height="20" fill="none" stroke="none" pointer-events="all" />
    <g fill="#000000" font-family="Helvetica" text-anchor="middle" font-size="11px">
      <text x="114.5" y="564">sensor_msgs::CameraInfo camera_info</text>
    </g>
    <!--Output arrow-->
    <path d="M 670 580 L 781.76 580" fill="none" stroke="#000000" stroke-width="2" stroke-miterlimit="10" pointer-events="stroke" />
    <path d="M 787.76 580 L 779.76 584 L 781.76 580 L 779.76 576 Z" fill="#000000" stroke="#000000" stroke-width="2" stroke-miterlimit="10" pointer-events="all" />
    <rect x="670" y="530" width="140" height="20" fill="none" stroke="none" pointer-events="all" />
    <g fill="#000000" font-family="Helvetica" text-anchor="middle" font-size="11px">
      <text x="739.5" y="544">Shared memory</text>
    </g>
    <rect x="670" y="540" width="140" height="20" fill="none" stroke="none" pointer-events="all" />
    <g fill="#000000" font-family="Helvetica" text-anchor="middle" font-size="11px">
      <text x="739.5" y="554">rgbd_msgs::RGBD</text>
    </g>
    <rect x="670" y="550" width="140" height="20" fill="none" stroke="none" pointer-events="all" />
    <g fill="#000000" font-family="Helvetica" text-anchor="middle" font-size="11px">
      <text x="739.5" y="564">rgbd_msgs::GetRGBD</text>
    </g>
    <!--Body-->
    <rect x="230" y="480" width="440" height="200" fill="none" stroke="#000000" pointer-events="all" />
    <g fill="#000000" font-family="Helvetica" font-weight="bold" text-anchor="middle" font-size="14px">
      <a xlink:href="ros__to__rgbd_8cpp.html" target="_parent">
        <text x="449.5" y="505.5">ros_to_rgbd</text>
      </a>
    </g>
    <!--Left arrow-->
    <path d="M 230 580 L 281.76 580" fill="none" stroke="#000000" stroke-width="2" stroke-miterlimit="10" pointer-events="stroke" />
    <path d="M 287.76 580 L 279.76 584 L 281.76 580 L 279.76 576 Z" fill="#000000" stroke="#000000" stroke-width="2" stroke-miterlimit="10" pointer-events="all" />
    <!--Client body-->
    <rect x="290" y="530" width="100" height="100" fill="none" stroke="#000000" pointer-events="all" />
    <g fill="#000000" font-family="Helvetica" font-weight="bold" text-anchor="middle" font-size="14px">
      <a xlink:href="classrgbd_1_1ClientROS.html" target="_parent">
        <text x="339.5" y="585.5">ClientROS</text>
      </a>
    </g>
    <!--Middle arrow-->
    <path d="M 390 580 L 501.76 580" fill="none" stroke="#000000" stroke-width="2" stroke-miterlimit="10" pointer-events="stroke" />
    <path d="M 507.76 580 L 499.76 584 L 501.76 580 L 499.76 576 Z" fill="#000000" stroke="#000000" stroke-width="2" stroke-miterlimit="10" pointer-events="all" />
    <g fill="#000000" font-family="Helvetica" text-anchor="middle" font-size="11px">
      <text x="449.5" y="564">rgbd::Image</text>
    </g>
    <!--Server body-->
    <rect x="510" y="530" width="100" height="100" fill="none" stroke="#000000" pointer-events="all" />
    <g fill="#000000" font-family="Helvetica" font-weight="bold" text-anchor="middle" font-size="14px">
      <a xlink:href="classrgbd_1_1Server.html" target="_parent">
        <text x="559.5" y="585.5">Server</text>
      </a>
    </g>
    <!--Right arrow-->
    <path d="M 610 580 L 661.76 580" fill="none" stroke="#000000" stroke-width="2" stroke-miterlimit="10" pointer-events="stroke" />
    <path d="M 667.76 580 L 659.76 584 L 661.76 580 L 659.76 576 Z" fill="#000000" stroke="#000000" stroke-width="2" stroke-miterlimit="10" pointer-events="all" />
  </g>
</svg>
