<?xml version="1.0" encoding="UTF-8"?>
<!DOCTYPE svg PUBLIC "-//W3C//DTD SVG 1.1//EN" "http://www.w3.org/Graphics/SVG/1.1/DTD/svg11.dtd">
<svg xmlns="http://www.w3.org/2000/svg" xmlns:xlink="http://www.w3.org/1999/xlink" version="1.1" width="629px" height="1002px" viewBox="-0.5 -0.5 629 1002">
  <defs />
  <g>
    <!--Client side-->
    <rect x="228" y="0" width="160" height="40" fill="none" stroke="none" pointer-events="all" />
    <g fill="#000000" font-family="Helvetica" font-weight="bold" text-anchor="middle" font-size="24px">
      <text x="307.5" y="30.5">Client side</text>
    </g>

    <!--Client-->
    <!--Input arrow-->
    <path d="M 8 210 L 119.76 210" fill="none" stroke="#000000" stroke-width="2" stroke-miterlimit="10" pointer-events="stroke" />
    <path d="M 125.76 210 L 117.76 214 L 119.76 210 L 117.76 206 Z" fill="#000000" stroke="#000000" stroke-width="2" stroke-miterlimit="10" pointer-events="all" />
    <rect x="8" y="160" width="120" height="20" fill="none" stroke="none" pointer-events="all" />
    <g fill="#000000" font-family="Helvetica" text-anchor="middle" font-size="11px">
      <text x="67.5" y="174">Shared memory</text>
    </g>
    <rect x="8" y="170" width="120" height="20" fill="none" stroke="none" pointer-events="all" />
    <g fill="#000000" font-family="Helvetica" text-anchor="middle" font-size="11px">
      <text x="67.5" y="184">or</text>
    </g>
    <rect x="8" y="180" width="120" height="20" fill="none" stroke="none" pointer-events="all" />
    <g fill="#000000" font-family="Helvetica" text-anchor="middle" font-size="11px">
      <text x="67.5" y="194">rgbd_msgs::RGBD</text>
    </g>
    <!--Output arrow-->
    <path d="M 488 210 L 599.76 210" fill="none" stroke="#000000" stroke-width="2" stroke-miterlimit="10" pointer-events="stroke" />
    <path d="M 605.76 210 L 597.76 214 L 599.76 210 L 597.76 206 Z" fill="#000000" stroke="#000000" stroke-width="2" stroke-miterlimit="10" pointer-events="all" />
    <g fill="#000000" font-family="Helvetica" text-anchor="middle" font-size="12px">
      <text x="547.5" y="194.5">rgbd::Image</text>
    </g>
    <!--Body-->
    <rect x="128" y="60" width="360" height="300" fill="none" stroke="#000000" pointer-events="all" />
    <g fill="#000000" font-family="Helvetica" font-weight="bold" text-anchor="middle" font-size="14px">
      <a xlink:href="classrgbd_1_1Client.html" target="_parent">
        <text x="307.5" y="85.5">Client</text>
      </a>
    </g>

    <!--ClientSHM-->
    <!--Input arrow-->
    <path d="M 158 150 L 249.76 150" fill="none" stroke="#000000" stroke-width="2" stroke-miterlimit="10" pointer-events="stroke" />
    <path d="M 255.76 150 L 247.76 154 L 249.76 150 L 247.76 146 Z" fill="#000000" stroke="#000000" stroke-width="2" stroke-miterlimit="10" pointer-events="all" />
    <g fill="#000000" font-family="Helvetica" text-anchor="middle" font-size="11px">
      <text x="202.84" y="134">Shared memory</text>
    </g>
    <!--Output arrow-->
    <path d="M 358 150 L 449.76 150" fill="none" stroke="#000000" stroke-width="2" stroke-miterlimit="10" pointer-events="stroke" />
    <path d="M 455.76 150 L 447.76 154 L 449.76 150 L 447.76 146 Z" fill="#000000" stroke="#000000" stroke-width="2" stroke-miterlimit="10" pointer-events="all" />
    <g fill="#000000" font-family="Helvetica" text-anchor="middle" font-size="11px">
      <text x="407.84" y="134">rgbd::Image</text>
    </g>
    <!--Body-->
    <rect x="258" y="100" width="100" height="100" fill="none" stroke="#000000" pointer-events="all" />
    <g fill="#000000" font-family="Helvetica" font-weight="bold" text-anchor="middle" font-size="14px">
      <a xlink:href="classrgbd_1_1ClientSHM.html" target="_parent">
        <text x="307.5" y="155.5">ClientSHM</text>
      </a>
    </g>

    <!--ClientRGBD-->
    <!--Input arrow-->
    <path d="M 158 280 L 249.76 280" fill="none" stroke="#000000" stroke-width="2" stroke-miterlimit="10" pointer-events="stroke" />
    <path d="M 255.76 280 L 247.76 284 L 249.76 280 L 247.76 276 Z" fill="#000000" stroke="#000000" stroke-width="2" stroke-miterlimit="10" pointer-events="all" />
    <g fill="#000000" font-family="Helvetica" text-anchor="middle" font-size="11px">
      <text x="202.84" y="264">rgbd_msgs::RGBD</text>
    </g>
    <!--Output arrow-->
    <path d="M 358 280 L 449.76 280" fill="none" stroke="#000000" stroke-width="2" stroke-miterlimit="10" pointer-events="stroke" />
    <path d="M 455.76 280 L 447.76 284 L 449.76 280 L 447.76 276 Z" fill="#000000" stroke="#000000" stroke-width="2" stroke-miterlimit="10" pointer-events="all" />
    <g fill="#000000" font-family="Helvetica" text-anchor="middle" font-size="11px">
      <text x="407.84" y="264">rgbd::Image</text>
    </g>
    <!--Body-->
    <rect x="258" y="230" width="100" height="100" fill="none" stroke="#000000" pointer-events="all" />
    <g fill="#000000" font-family="Helvetica" font-weight="bold" text-anchor="middle" font-size="14px">
      <a xlink:href="classrgbd_1_1ClientRGBD.html" target="_parent">
        <text x="307.5" y="285.5">ClientRGBD</text>
      </a>
    </g>

    <!--ClientROS-->
    <!--Input arrow-->
    <path d="M 158 430 L 249.76 430" fill="none" stroke="#000000" stroke-width="2" stroke-miterlimit="10" pointer-events="stroke" />
    <path d="M 255.76 430 L 247.76 434 L 249.76 430 L 247.76 426 Z" fill="#000000" stroke="#000000" stroke-width="2" stroke-miterlimit="10" pointer-events="all" />
    <rect x="28" y="380" width="230" height="20" fill="none" stroke="none" pointer-events="all" />
    <g fill="#000000" font-family="Helvetica" text-anchor="middle" font-size="11px">
      <text x="142.5" y="394">sensor_msgs::Image color_image</text>
    </g>
    <rect x="28" y="390" width="230" height="20" fill="none" stroke="none" pointer-events="all" />
    <g fill="#000000" font-family="Helvetica" text-anchor="middle" font-size="11px">
      <text x="142.5" y="404">sensor_msgs::Image depth_image</text>
    </g>
    <rect x="28" y="400" width="230" height="20" fill="none" stroke="none" pointer-events="all" />
    <g fill="#000000" font-family="Helvetica" text-anchor="middle" font-size="11px">
      <text x="142.5" y="414">sensor_msgs::CameraInfo camera_info</text>
    </g>
    <!--Output arrow-->
    <path d="M 358 430 L 449.76 430" fill="none" stroke="#000000" stroke-width="2" stroke-miterlimit="10" pointer-events="stroke" />
    <path d="M 455.76 430 L 447.76 434 L 449.76 430 L 447.76 426 Z" fill="#000000" stroke="#000000" stroke-width="2" stroke-miterlimit="10" pointer-events="all" />
    <g fill="#000000" font-family="Helvetica" text-anchor="middle" font-size="11px">
      <text x="407.84" y="414">rgbd::Image</text>
    </g>
    <!--Body-->
    <rect x="258" y="380" width="100" height="100" fill="none" stroke="#000000" pointer-events="all" />
    <g fill="#000000" font-family="Helvetica" font-weight="bold" text-anchor="middle" font-size="14px">
      <a xlink:href="classrgbd_1_1ClientROS.html" target="_parent">
        <text x="307.5" y="435.5">ClientROS</text>
      </a>
    </g>

    <!--Server side-->
    <rect x="228" y="520" width="160" height="40" fill="none" stroke="none" pointer-events="all" />
    <g fill="#000000" font-family="Helvetica" font-weight="bold" text-anchor="middle" font-size="24px">
      <text x="307.5" y="550.5">Server side</text>
    </g>

    <!--Server-->
    <!--Input arrow-->
    <path d="M 8 730 L 119.76 730" fill="none" stroke="#000000" stroke-width="2" stroke-miterlimit="10" pointer-events="stroke" />
    <path d="M 125.76 730 L 117.76 734 L 119.76 730 L 117.76 726 Z" fill="#000000" stroke="#000000" stroke-width="2" stroke-miterlimit="10" pointer-events="all" />
    <g fill="#000000" font-family="Helvetica" text-anchor="middle" font-size="11px">
      <text x="67.5" y="714">rgbd::Image</text>
    </g>
    <!--Output arrow-->
    <path d="M 488 730 L 599.76 730" fill="none" stroke="#000000" stroke-width="2" stroke-miterlimit="10" pointer-events="stroke" />
    <path d="M 605.76 730 L 597.76 734 L 599.76 730 L 597.76 726 Z" fill="#000000" stroke="#000000" stroke-width="2" stroke-miterlimit="10" pointer-events="all" />
    <rect x="488" y="680" width="140" height="20" fill="none" stroke="none" pointer-events="all" />
    <g fill="#000000" font-family="Helvetica" text-anchor="middle" font-size="11px">
      <text x="557.5" y="694">Shared memory</text>
    </g>
    <rect x="488" y="690" width="140" height="20" fill="none" stroke="none" pointer-events="all" />
    <g fill="#000000" font-family="Helvetica" text-anchor="middle" font-size="11px">
      <text x="557.5" y="704">rgbd_msgs::RGBD</text>
    </g>
    <rect x="488" y="700" width="140" height="20" fill="none" stroke="none" pointer-events="all" />
    <g fill="#000000" font-family="Helvetica" text-anchor="middle" font-size="11px">
      <text x="557.5" y="714">rgbd_msgs::GetRGBD</text>
    </g>
    <!--Body-->
    <rect x="128" y="580" width="360" height="300" fill="none" stroke="#000000" pointer-events="all" />
    <g fill="#000000" font-family="Helvetica" font-weight="bold" text-anchor="middle" font-size="14px">
      <a xlink:href="classrgbd_1_1Server.html" target="_parent">
        <text x="307.5" y="605.5">Server</text>
      </a>
    </g>

    <!--ServerSHM-->
    <!--Input arrow-->
    <path d="M 158 670 L 249.76 670" fill="none" stroke="#000000" stroke-width="2" stroke-miterlimit="10" pointer-events="stroke" />
    <path d="M 255.76 670 L 247.76 674 L 249.76 670 L 247.76 666 Z" fill="#000000" stroke="#000000" stroke-width="2" stroke-miterlimit="10" pointer-events="all" />
    <g fill="#000000" font-family="Helvetica" text-anchor="middle" font-size="11px">
      <text x="202.84" y="654">rgbd::Image</text>
    </g>
    <!--Output arrow-->
    <path d="M 358 670 L 449.76 670" fill="none" stroke="#000000" stroke-width="2" stroke-miterlimit="10" pointer-events="stroke" />
    <path d="M 455.76 670 L 447.76 674 L 449.76 670 L 447.76 666 Z" fill="#000000" stroke="#000000" stroke-width="2" stroke-miterlimit="10" pointer-events="all" />
    <g fill="#000000" font-family="Helvetica" text-anchor="middle" font-size="11px">
      <text x="407.84" y="654">Shared memory</text>
    </g>
    <!--Body-->
    <rect x="258" y="620" width="100" height="100" fill="none" stroke="#000000" pointer-events="all" />
    <g fill="#000000" font-family="Helvetica" font-weight="bold" text-anchor="middle" font-size="14px">
      <a xlink:href="classrgbd_1_1ServerSHM.html" target="_parent">
        <text x="307.5" y="675.5">ServerSHM</text>
      </a>
    </g>

    <!--ServerRGBD-->
    <!--Input arrow-->
    <path d="M 158 800 L 249.76 800" fill="none" stroke="#000000" stroke-width="2" stroke-miterlimit="10" pointer-events="stroke" />
    <path d="M 255.76 800 L 247.76 804 L 249.76 800 L 247.76 796 Z" fill="#000000" stroke="#000000" stroke-width="2" stroke-miterlimit="10" pointer-events="all" />
    <g fill="#000000" font-family="Helvetica" text-anchor="middle" font-size="11px">
      <text x="202.84" y="784">rgbd::Image</text>
    </g>
    <!--Output arrow-->
    <path d="M 358 800 L 449.76 800" fill="none" stroke="#000000" stroke-width="2" stroke-miterlimit="10" pointer-events="stroke" />
    <path d="M 455.76 800 L 447.76 804 L 449.76 800 L 447.76 796 Z" fill="#000000" stroke="#000000" stroke-width="2" stroke-miterlimit="10" pointer-events="all" />
    <rect x="358" y="765" width="130" height="20" fill="none" stroke="none" pointer-events="all" />
    <g fill="#000000" font-family="Helvetica" text-anchor="middle" font-size="11px">
      <text x="422.5" y="779">rgbd_msgs::RGBD</text>
    </g>
    <rect x="358" y="775" width="130" height="20" fill="none" stroke="none" pointer-events="all" />
    <g fill="#000000" font-family="Helvetica" text-anchor="middle" font-size="11px">
      <text x="422.5" y="789">rgbd_msgs::GetRGBD</text>
    </g>
    <!--Body-->
    <rect x="258" y="750" width="100" height="100" fill="none" stroke="#000000" pointer-events="all" />
    <g fill="#000000" font-family="Helvetica" font-weight="bold" text-anchor="middle" font-size="14px">
      <a xlink:href="classrgbd_1_1ServerRGBD.html" target="_parent">
        <text x="307.5" y="805.5">ServerRGBD</text>
      </a>
    </g>

    <!--ServerROS-->
    <!--Input arrow-->
    <path d="M 158 950 L 249.76 950" fill="none" stroke="#000000" stroke-width="2" stroke-miterlimit="10" pointer-events="stroke" />
    <path d="M 255.76 950 L 247.76 954 L 249.76 950 L 247.76 946 Z" fill="#000000" stroke="#000000" stroke-width="2" stroke-miterlimit="10" pointer-events="all" />
    <g fill="#000000" font-family="Helvetica" text-anchor="middle" font-size="11px">
      <text x="202.84" y="934">rgbd::Image</text>
    </g>
    <!--Output arrow-->
    <path d="M 358 950 L 449.76 950" fill="none" stroke="#000000" stroke-width="2" stroke-miterlimit="10" pointer-events="stroke" />
    <path d="M 455.76 950 L 447.76 954 L 449.76 950 L 447.76 946 Z" fill="#000000" stroke="#000000" stroke-width="2" stroke-miterlimit="10" pointer-events="all" />
    <rect x="358" y="900" width="230" height="20" fill="none" stroke="none" pointer-events="all" />
    <g fill="#000000" font-family="Helvetica" text-anchor="middle" font-size="11px">
      <text x="472.5" y="914">sensor_msgs::Image color_image</text>
    </g>
    <rect x="358" y="910" width="230" height="20" fill="none" stroke="none" pointer-events="all" />
    <g fill="#000000" font-family="Helvetica" text-anchor="middle" font-size="11px">
      <text x="472.5" y="924">sensor_msgs::Image depth_image</text>
    </g>
    <rect x="358" y="920" width="230" height="20" fill="none" stroke="none" pointer-events="all" />
    <g fill="#000000" font-family="Helvetica" text-anchor="middle" font-size="11px">
      <text x="472.5" y="934">sensor_msgs::CameraInfo camera_info</text>
    </g>
    <!--Body-->
    <rect x="258" y="900" width="100" height="100" fill="none" stroke="#000000" pointer-events="all" />
    <g fill="#000000" font-family="Helvetica" font-weight="bold" text-anchor="middle" font-size="14px">
      <a xlink:href="classrgbd_1_1ServerROS.html" target="_parent">
        <text x="307.5" y="955.5">ServerROS</text>
      </a>
    </g>
  </g>
</svg>
